<svg xmlns="http://www.w3.org/2000/svg" viewBox="0 0 265.5 182.34"><defs><style>.cls-1{fill:#1d1d1b;}</style></defs><g id="Layer_2" data-name="Layer 2"><g id="Layer_1-2" data-name="Layer 1"><path class="cls-1" d="M37.87,0H49.29V113.93H37.87v-6.1c-3.14,4.82-9.64,7.28-15.24,7.28C10.53,115.11,0,105.57,0,90.91s10.43-24.1,22.53-24.1c5.8,0,12.2,2.36,15.34,7.18Zm-.19,90.81A13.36,13.36,0,0,0,24.4,77.43c-7.09,0-12.89,5.71-12.89,13.38s5.8,13.68,12.89,13.68A13.38,13.38,0,0,0,37.68,90.81Z"/><polygon class="cls-1" points="105.45 67.99 93.16 67.99 81.35 97.11 69.45 67.99 56.95 67.99 75.25 110.68 67.95 128.83 62.17 143.09 45.74 182.34 57.74 182.34 86.27 113.97 86.27 113.97 105.45 67.99"/><path class="cls-1" d="M156.9,88.16v25.77H145.49v-25c0-7.38-4.43-11.31-9.54-11.31s-11.71,3.05-11.71,11.9v24.4H112.83V68h11.41v7.28c2.36-5.81,9.54-8.46,14.26-8.46C150.31,66.81,156.9,74.78,156.9,88.16Z"/><path class="cls-1" d="M166.93,90.91c0-14.56,11.71-24.1,25-24.1a23.46,23.46,0,0,1,18.69,8.85l-8.07,6.4a13.64,13.64,0,0,0-10.43-4.63c-8,0-13.67,5.71-13.67,13.48a13.26,13.26,0,0,0,13.67,13.58,13.67,13.67,0,0,0,10.43-4.63l8.07,6.4a23.46,23.46,0,0,1-18.69,8.85C178.64,115.11,166.93,105.47,166.93,90.91Z"/><path class="cls-1" d="M216.6,90.91c0-14.56,11.32-24.1,24.4-24.1s24.5,9.54,24.5,24.1-11.42,24.2-24.5,24.2S216.6,105.47,216.6,90.91Zm37.39,0c0-7.87-5.91-13.48-13-13.48S228.11,83,228.11,90.91c0,8.07,5.81,13.58,12.89,13.58S254,99,254,90.91Z"/></g></g></svg>