<svg xmlns="http://www.w3.org/2000/svg" xmlns:xlink="http://www.w3.org/1999/xlink" width="40px" height="40px" viewBox="0 0 40 40" version="1.1">
<g id="surface1">
<path style=" stroke:none;fill-rule:nonzero;fill:#000000;fill-opacity:1;" d="M 39.800781 23.507812 L 33.886719 16.753906 C 33.734375 16.582031 33.515625 16.484375 33.285156 16.484375 L 28.140625 16.484375 L 28.140625 11.703125 C 28.140625 11.261719 27.785156 10.90625 27.34375 10.90625 L 15.894531 10.90625 C 15.082031 7.324219 11.871094 4.644531 8.046875 4.644531 C 3.609375 4.644531 0 8.253906 0 12.691406 C 0 14.429688 0.554688 16.039062 1.492188 17.355469 L 1.492188 29.207031 L 0.796875 29.207031 C 0.355469 29.207031 0 29.5625 0 30.003906 C 0 30.441406 0.355469 30.800781 0.796875 30.800781 L 1.492188 30.800781 L 1.492188 31.730469 C 1.492188 32.171875 1.847656 32.527344 2.289062 32.527344 L 3.859375 32.527344 C 4.222656 34.144531 5.667969 35.355469 7.394531 35.355469 C 9.117188 35.355469 10.566406 34.144531 10.929688 32.527344 L 29.621094 32.527344 C 29.984375 34.144531 31.429688 35.355469 33.15625 35.355469 C 34.878906 35.355469 36.328125 34.144531 36.691406 32.527344 L 39.203125 32.527344 C 39.644531 32.527344 40 32.171875 40 31.730469 L 40 24.035156 C 40 23.839844 39.929688 23.65625 39.800781 23.507812 Z M 16.09375 12.5 L 26.546875 12.5 L 26.546875 25.828125 L 3.085938 25.828125 L 3.085938 19.023438 C 4.453125 20.097656 6.175781 20.742188 8.046875 20.742188 C 12.484375 20.742188 16.09375 17.128906 16.09375 12.691406 C 16.09375 12.628906 16.09375 12.5625 16.09375 12.5 Z M 1.59375 12.691406 C 1.59375 9.132812 4.488281 6.238281 8.046875 6.238281 C 11.605469 6.238281 14.503906 9.132812 14.503906 12.691406 C 14.503906 16.25 11.605469 19.148438 8.046875 19.148438 C 4.488281 19.148438 1.59375 16.25 1.59375 12.691406 Z M 7.394531 33.761719 C 6.273438 33.761719 5.363281 32.851562 5.363281 31.730469 C 5.363281 30.613281 6.273438 29.699219 7.394531 29.699219 C 8.515625 29.699219 9.425781 30.613281 9.425781 31.730469 C 9.425781 32.851562 8.515625 33.761719 7.394531 33.761719 Z M 26.546875 30.933594 L 10.929688 30.933594 C 10.566406 29.316406 9.117188 28.105469 7.394531 28.105469 C 5.667969 28.105469 4.222656 29.316406 3.859375 30.933594 L 3.085938 30.933594 L 3.085938 27.421875 L 26.546875 27.421875 Z M 34.03125 19.339844 L 37.492188 23.289062 L 34.03125 23.289062 Z M 33.15625 33.761719 C 32.035156 33.761719 31.125 32.851562 31.125 31.730469 C 31.125 30.613281 32.035156 29.699219 33.15625 29.699219 C 34.273438 29.699219 35.1875 30.613281 35.1875 31.730469 C 35.1875 32.851562 34.273438 33.761719 33.15625 33.761719 Z M 38.40625 30.933594 L 36.691406 30.933594 C 36.328125 29.316406 34.878906 28.105469 33.15625 28.105469 C 31.429688 28.105469 29.984375 29.316406 29.621094 30.933594 L 28.140625 30.933594 L 28.140625 18.078125 L 32.4375 18.078125 L 32.4375 24.085938 C 32.4375 24.527344 32.792969 24.882812 33.234375 24.882812 L 38.40625 24.882812 Z M 38.40625 30.933594 "/>
<path style=" stroke:none;fill-rule:nonzero;fill:#000000;fill-opacity:1;" d="M 24.621094 23.371094 L 17.929688 23.371094 C 17.488281 23.371094 17.132812 23.726562 17.132812 24.167969 C 17.132812 24.605469 17.488281 24.964844 17.929688 24.964844 L 24.621094 24.964844 C 25.0625 24.964844 25.417969 24.605469 25.417969 24.167969 C 25.417969 23.726562 25.0625 23.371094 24.621094 23.371094 Z M 15.457031 23.371094 L 14.980469 23.371094 C 14.539062 23.371094 14.183594 23.726562 14.183594 24.167969 C 14.183594 24.605469 14.539062 24.964844 14.980469 24.964844 L 15.457031 24.964844 C 15.898438 24.964844 16.253906 24.605469 16.253906 24.167969 C 16.253906 23.726562 15.898438 23.371094 15.457031 23.371094 Z M 10.363281 13.882812 L 8.84375 12.363281 L 8.84375 7.910156 C 8.84375 7.472656 8.488281 7.113281 8.046875 7.113281 C 7.609375 7.113281 7.25 7.472656 7.25 7.910156 L 7.25 12.691406 C 7.25 12.902344 7.335938 13.105469 7.484375 13.257812 L 9.238281 15.007812 C 9.394531 15.164062 9.597656 15.242188 9.800781 15.242188 C 10.003906 15.242188 10.207031 15.164062 10.363281 15.007812 C 10.675781 14.699219 10.675781 14.191406 10.363281 13.882812 Z M 10.363281 13.882812 "/>
</g>
</svg>