<?xml version="1.0" encoding="UTF-8"?><svg id="Layer_2" xmlns="http://www.w3.org/2000/svg" viewBox="0 0 919.3 177.32"><defs><style>.cls-1,.cls-2{fill:#1d1d1b;}.cls-2{fill-rule:evenodd;}</style></defs><g id="Ebene_1"><g><g id="pelletray_logo.psd"><g><path class="cls-2" d="M559.05,42.38h63.62c8.43,1.45,15.33,2.16,21.69,6.27,20.41,13.2,18.58,57.23-6.75,61.21-.04,1.64,4.58,4.89,6.26,7.71,6.08,10.16,11.16,28.42,15.42,43.37,.95,3.34,4.79,13.19,3.37,14.94-2.75,3.4-20.57-.96-25.54,1.45h-7.23c-3.22-10.46-7.97-27.27-11.08-39.52-1.07-4.22-1.39-10.36-4.34-12.53-3.91-2.88-10.13-.77-16.39-1.45v40c0,3.23,.65,12.07-.48,13.01-.84,.7-8.27,0-9.64,0h-28.91V42.38Zm58.31,31.33c-3.06-4.57-11.68-4.9-19.28-4.82v29.88c18.23,4.42,26.39-14.42,19.28-25.06Z"/><path class="cls-2" d="M0,43.35c20.59,.77,40.35-1.04,58.31,0,17.69,1.03,30.33,8.99,35.66,22.65,8.21,21.02,1.02,44.26-14.46,53.02-10.39,5.88-24.67,6.91-42.41,6.26v50.6H0V43.35Zm56.39,29.88c-3.03-4.47-12.18-7.06-18.31-5.3-1.88,.54-.96,13.01-.96,16.87v15.9c18.6,5.61,27.75-14.97,19.28-27.47Z"/><path class="cls-2" d="M103.62,43.35h83.86v27.95h-47.23v11.57c0,2.36-1.47,9.32,0,11.09,1.62,1.94,18.87,.48,22.17,.48h22.17c-.31,8.84,.63,18.94-.48,26.99h-32.77c-3.34,0-9.7-.76-10.6,0-1.39,1.16-.48,10.44-.48,13.01,0,1.6-1.43,11.3,0,13.01,1.56,1.88,21.21,.48,24.58,.48h24.58v27.95H103.13c.32-44.02-.64-89.32,.48-132.53Z"/><path class="cls-2" d="M199.04,43.35h36.15c.87,26.03,.48,60.96,.48,91.08,0,3.5-.69,12.19,0,13.01,1.71,2.06,19.14,.48,22.65,.48h23.13v27.95h-82.89c.32-44.02-.64-89.32,.48-132.53Z"/><path class="cls-2" d="M287.23,43.35h36.15v91.08c0,3.5-.69,12.19,0,13.01,.83,.99,9.29,.48,11.57,.48h34.7v27.47c-26.67,1.12-55.42,.16-82.89,.48,.32-44.02-.64-89.32,.48-132.53Z"/><path class="cls-2" d="M458.8,43.35c1.11,8.37,.17,18.79,.48,27.95h-35.66c-2.78,0-10.6-.81-11.57,0-1.15,.96-.48,8.56-.48,11.08,0,1.36-1.3,10.01,0,11.57,1.85,2.22,17.81,.48,22.17,.48h22.17v26.99h-44.34v13.01c0,2.83-1.67,11.01,0,13.01,.88,1.06,9.39,.48,12.05,.48h37.11v27.95h-86.27V61.18c0-5.08-.84-17.34,.96-17.83,5.6-1.53,15.34,0,21.21,0h62.17Z"/><path class="cls-2" d="M555.67,43.83c-.31,9.49,.63,20.23-.48,28.92h-27.95v103.13c-12.21-.32-25.7,.64-37.11-.48V85.76c0-2.61,.62-11.79,0-12.53-1.59-1.91-12.23-.48-13.98-.48-5.33,0-9.76,.38-13.49-.48,.99-9.26-1.35-18.46,0-27.47,.39-2.6,19.93-1.45,24.1-1.45,22.73,0,49.9-.38,68.92,.48Z"/><path class="cls-2" d="M779.29,175.88h-29.4c-2.64,0-8.62,.68-9.64,0-1.06-.71-2.08-10.01-2.41-12.05-4.66-28.54-10.43-59.97-16.87-84.34-5.15,24.57-11.29,56.84-16.38,84.82-.42,2.29-1.41,10.91-2.41,11.57-2.19,1.44-15.87,0-19.28,0h-19.28c9.16-36.34,20.15-77.16,29.88-114.7,1.13-4.37,2.1-16.28,5.3-17.83,3.02-1.47,18.45,0,22.65,0h11.57c2.89,0,9.4-.97,11.08,0,1.64,.94,3.84,12.67,4.82,16.39,10.28,39.02,20.28,77.73,30.36,116.15Z"/><path class="cls-2" d="M813.51,89.61c4.48-10.19,7.32-22.53,11.08-35.18,.55-1.85,2.61-10.37,3.85-11.08,2.93-1.68,16.32,0,20.24,0h19.76c-8.6,20.23-17.71,39.78-26.99,60.72-2.88,6.49-8.01,13.46-9.16,19.76-3.01,16.48,2.22,33.55,0,52.05h-37.11c-1.93-19.84,2.65-36.17,0-52.05-1-5.97-5.9-14.03-8.68-20.24-3.15-7.06-6.11-13.9-8.67-19.76-5.93-13.54-13.15-26.7-17.83-40.48h19.76c6.36,0,15.81-1.92,19.28,0,1.72,.95,3.13,9.16,3.86,11.57,3.52,11.61,7.3,23.73,10.6,34.7Z"/></g></g><path class="cls-1" d="M911.92,43c-4.92,4.94-10.87,7.41-17.85,7.41s-12.92-2.47-17.81-7.41c-4.87-4.92-7.31-10.88-7.31-17.88s2.46-12.86,7.38-17.78c4.9-4.9,10.81-7.34,17.74-7.34s12.93,2.45,17.85,7.34c4.92,4.9,7.38,10.82,7.38,17.78s-2.46,12.94-7.38,17.88Zm-33.15-33.19c-4.21,4.23-6.31,9.35-6.31,15.34s2.09,11.19,6.28,15.44c4.21,4.26,9.32,6.38,15.34,6.38s11.13-2.13,15.34-6.38c4.21-4.26,6.31-9.4,6.31-15.44s-2.1-11.11-6.31-15.34c-4.23-4.26-9.35-6.38-15.34-6.38s-11.07,2.13-15.31,6.38Zm14.83,1.41c3.43,0,5.95,.33,7.55,1,2.86,1.19,4.29,3.53,4.29,7.01,0,2.47-.9,4.29-2.7,5.46-.96,.62-2.29,1.06-4,1.34,2.16,.34,3.74,1.25,4.75,2.71,1,1.46,1.5,2.89,1.5,4.28v2.02c0,.64,.02,1.33,.07,2.06s.13,1.21,.24,1.44l.17,.34h-4.56c-.02-.09-.05-.18-.07-.27s-.05-.19-.07-.31l-.1-.89v-2.19c0-3.19-.87-5.3-2.61-6.33-1.03-.59-2.84-.89-5.42-.89h-3.84v10.88h-4.87V11.22h9.68Zm5.26,4.36c-1.23-.69-3.2-1.03-5.9-1.03h-4.16v10.02h4.41c2.06,0,3.61-.21,4.65-.62,1.9-.75,2.86-2.2,2.86-4.32,0-2.01-.61-3.36-1.84-4.05Z"/></g></g></svg>