<?xml version="1.0" standalone="no"?>
<!DOCTYPE svg PUBLIC "-//W3C//DTD SVG 20010904//EN"
 "http://www.w3.org/TR/2001/REC-SVG-20010904/DTD/svg10.dtd">
<svg version="1.0" xmlns="http://www.w3.org/2000/svg"
 width="1919.000000pt" height="316.000000pt" viewBox="0 0 1919.000000 316.000000"
 preserveAspectRatio="xMidYMid meet">

<g transform="translate(0.000000,316.000000) scale(0.100000,-0.100000)"
fill="#000000" stroke="none">
<path d="M0 1580 l0 -1580 9595 0 9595 0 0 1580 0 1580 -9595 0 -9595 0 0
-1580z m5680 950 c0 -46 -2 -50 -24 -50 -13 0 -27 7 -30 16 -10 26 3 54 25 54
10 0 19 7 19 15 0 8 2 15 5 15 3 0 5 -22 5 -50z m3337 -27 c-2 -16 -4 -3 -4
27 0 30 2 43 4 28 2 -16 2 -40 0 -55z m2970 0 c-2 -16 -4 -3 -4 27 0 30 2 43
4 28 2 -16 2 -40 0 -55z m117 55 c-1 -13 -3 -35 -3 -50 -1 -16 -5 -28 -10 -28
-12 0 -19 66 -8 85 12 22 24 18 21 -7z m1996 -28 c0 -27 -4 -50 -10 -50 -5 0
-10 23 -10 50 0 28 5 50 10 50 6 0 10 -22 10 -50z m30 0 c0 -27 -4 -50 -10
-50 -5 0 -10 23 -10 50 0 28 5 50 10 50 6 0 10 -22 10 -50z m-8529 -5 c9 -25
13 -45 9 -45 -4 0 -10 7 -14 15 -7 20 -26 19 -42 -2 -7 -10 -14 -13 -14 -7 0
18 29 84 38 84 4 0 14 -20 23 -45z m3132 38 c-13 -2 -23 -11 -23 -19 0 -8 10
-15 23 -15 l22 -2 -22 -4 c-13 -2 -23 -11 -23 -18 0 -7 10 -16 23 -18 16 -3
13 -5 -10 -6 -33 -1 -33 0 -33 44 0 44 0 45 33 44 23 -1 26 -3 10 -6z m3165 0
c-13 -3 -18 -16 -20 -46 l-1 -42 -4 42 c-3 29 -9 43 -21 46 -9 3 1 5 23 5 22
0 32 -2 23 -5z m2085 0 c-27 -5 -31 -32 -5 -34 16 -1 16 -2 0 -6 -10 -2 -18
-13 -18 -24 0 -10 -4 -19 -10 -19 -5 0 -10 20 -10 45 0 44 0 45 33 44 23 -1
26 -3 10 -6z m377 -33 c0 -29 4 -40 15 -40 11 0 15 11 15 40 0 22 5 40 10 40
12 0 13 -60 1 -78 -4 -8 -19 -12 -32 -10 -20 2 -24 9 -27 46 -2 25 1 42 7 42
6 0 11 -18 11 -40z m-8638 8 c-5 -7 -12 -24 -15 -38 -3 -18 -5 -15 -6 13 -1
28 3 37 15 37 12 0 14 -3 6 -12z m66 -11 c2 -12 -3 -17 -18 -17 -12 0 -18 -4
-15 -11 4 -6 13 -8 21 -5 8 3 14 1 14 -4 0 -17 -38 -11 -49 7 -12 23 5 55 27
51 9 -2 18 -11 20 -21z m68 12 c4 -8 0 -9 -15 -4 -11 3 -21 2 -21 -3 0 -5 9
-12 21 -15 12 -3 19 -12 17 -19 -6 -18 -38 -23 -52 -8 -8 9 -6 11 12 5 13 -4
22 -2 22 4 0 6 -7 11 -15 11 -8 0 -15 9 -15 20 0 22 34 28 46 9z m60 -1 c5 -8
2 -9 -9 -5 -10 3 -17 2 -17 -2 0 -5 7 -11 15 -15 8 -3 15 -12 15 -21 0 -17
-35 -21 -46 -4 -4 8 0 9 15 4 12 -4 21 -2 21 4 0 6 -6 11 -14 11 -18 0 -29 16
-21 30 8 14 32 13 41 -2z m72 -11 c2 -12 -3 -17 -17 -17 -12 0 -21 -5 -21 -11
0 -6 9 -9 20 -6 11 3 18 1 14 -4 -3 -5 -14 -9 -24 -9 -23 0 -36 36 -19 56 16
19 43 14 47 -9z m2910 -14 c2 -19 -1 -33 -7 -33 -6 0 -11 14 -11 30 0 17 -4
30 -10 30 -5 0 -10 -13 -10 -30 0 -16 -4 -30 -10 -30 -5 0 -10 14 -10 31 0 39
-22 34 -31 -7 -6 -27 -7 -27 -8 9 l-1 37 48 -2 c45 -3 47 -4 50 -35z m62 2 c0
-31 -3 -35 -25 -35 -31 0 -34 29 -5 37 11 3 20 10 20 15 0 5 -10 6 -21 3 -15
-5 -19 -4 -15 4 4 6 16 11 27 11 15 0 19 -7 19 -35z m27 -17 c-2 -13 -4 -5 -4
17 -1 22 1 32 4 23 2 -10 2 -28 0 -40z m2973 48 c0 -2 3 -11 6 -20 5 -12 0
-16 -21 -16 -16 0 -24 -4 -20 -11 4 -6 13 -8 21 -5 8 3 14 1 14 -5 0 -6 -10
-9 -22 -7 -39 5 -37 68 2 68 11 0 20 -2 20 -4z m98 -19 c2 -12 -3 -17 -18 -17
-12 0 -18 -4 -15 -11 4 -6 13 -8 21 -5 8 3 14 1 14 -4 0 -17 -38 -11 -49 7
-12 23 5 55 27 51 9 -2 18 -11 20 -21z m112 8 c15 -18 7 -43 -16 -52 -24 -9
-46 24 -33 48 12 23 32 24 49 4z m74 -1 c9 -24 7 -54 -4 -54 -5 0 -10 14 -10
31 0 39 -22 34 -31 -7 -6 -27 -7 -27 -8 9 -1 33 2 37 23 37 13 0 27 -7 30 -16z
m1821 -19 c0 -25 -4 -30 -25 -30 -16 0 -26 6 -28 18 -6 30 6 49 30 45 18 -2
23 -9 23 -33z m130 0 c0 -25 -4 -30 -25 -30 -16 0 -26 6 -28 18 -6 30 6 49 30
45 18 -2 23 -9 23 -33z m35 13 c6 -17 9 -18 9 -6 1 27 20 31 30 6 7 -16 10
-18 10 -6 1 9 6 20 11 23 7 4 8 -3 4 -22 -10 -41 -22 -50 -32 -23 l-9 24 -6
-25 c-7 -28 -21 -17 -31 24 -8 33 1 36 14 5z m240 12 c0 -5 -7 -7 -15 -4 -8 4
-15 1 -15 -5 0 -6 6 -11 14 -11 15 0 28 -24 19 -34 -10 -10 -41 -7 -49 5 -4 8
0 9 15 4 12 -4 21 -2 21 4 0 6 -6 11 -14 11 -18 0 -29 16 -21 30 8 13 45 13
45 0z m-5683 -26 c-3 -3 -12 -4 -19 -1 -8 3 -5 6 6 6 11 1 17 -2 13 -5z m5248
-308 c0 -31 -5 -51 -13 -54 -9 -3 -11 8 -9 42 3 25 1 46 -4 46 -15 0 -27 -35
-22 -63 5 -27 4 -28 -23 -25 -26 3 -29 7 -32 42 -5 60 1 68 55 64 l48 -3 0
-49z m145 -2 l0 -55 -52 3 -53 3 -3 39 c-5 59 1 66 58 66 l50 0 0 -56z m-8550
-14 l0 -60 -33 0 c-38 0 -57 15 -57 45 0 27 18 45 47 45 14 0 23 6 23 15 0 8
5 15 10 15 6 0 10 -27 10 -60z m3090 50 c0 -5 -7 -10 -16 -10 -8 0 -12 5 -9
10 3 6 10 10 16 10 5 0 9 -4 9 -10z m158 -15 c0 -14 -4 -25 -9 -25 -5 0 -9
-16 -9 -35 0 -19 -4 -35 -9 -35 -12 0 -19 87 -8 106 13 23 35 16 35 -11z m362
-33 l0 -59 -32 -1 c-39 -1 -58 13 -58 43 0 29 24 49 50 42 15 -4 20 0 20 14 0
10 5 19 10 19 6 0 10 -26 10 -58z m560 44 c0 -9 12 -16 28 -18 24 -3 27 -7 30
-45 2 -26 -1 -43 -7 -43 -6 0 -11 16 -11 36 0 28 -3 35 -17 32 -12 -2 -19 -14
-21 -36 -6 -56 -22 -35 -22 28 0 33 4 60 10 60 6 0 10 -6 10 -14z m2230 -25
c0 -22 4 -41 9 -43 5 -1 3 -12 -6 -23 -11 -14 -17 -16 -20 -7 -3 6 -15 12 -28
12 -35 0 -37 11 -7 58 34 53 52 54 52 3z m60 -21 c0 -33 -4 -60 -10 -60 -5 0
-10 23 -10 50 0 28 -4 50 -10 50 -5 0 -10 5 -10 10 0 6 9 10 20 10 18 0 20 -7
20 -60z m135 0 c0 -50 -2 -55 -23 -58 -26 -4 -55 15 -46 30 4 6 10 6 17 -1 16
-16 37 -13 37 4 0 8 -7 15 -15 15 -8 0 -15 4 -15 9 0 5 7 11 15 15 30 11 16
28 -17 20 -30 -6 -31 -5 -19 10 8 10 25 16 40 14 24 -3 26 -6 26 -58z m55 0
c0 -33 -4 -60 -10 -60 -5 0 -10 23 -10 50 0 28 -4 50 -10 50 -5 0 -10 5 -10
10 0 6 9 10 20 10 18 0 20 -7 20 -60z m144 28 c15 -44 -3 -83 -38 -83 -16 0
-31 5 -33 12 -3 8 6 11 23 10 15 -1 29 4 32 12 3 8 0 11 -7 7 -22 -14 -51 4
-51 33 0 35 8 43 39 39 18 -2 29 -12 35 -30z m90 10 c8 -13 5 -24 -12 -48 -22
-29 -22 -30 -2 -30 11 0 20 -4 20 -10 0 -5 -18 -10 -40 -10 -22 0 -40 3 -40 8
0 4 14 20 30 35 17 16 30 33 30 37 0 16 -21 22 -36 9 -19 -16 -30 -4 -14 16
16 20 49 16 64 -7z m56 -38 c0 -33 -4 -60 -10 -60 -5 0 -10 23 -10 50 0 28 -4
50 -10 50 -5 0 -10 5 -10 10 0 6 9 10 20 10 18 0 20 -7 20 -60z m137 2 c3 -58
-7 -69 -52 -58 -23 6 -25 11 -22 49 3 55 13 69 45 65 25 -3 27 -7 29 -56z m99
20 c1 -18 4 -35 7 -38 12 -13 -14 -44 -37 -44 -31 0 -44 18 -42 60 2 47 13 62
44 58 23 -3 27 -8 28 -36z m144 4 c0 -19 2 -40 5 -48 7 -18 -15 -48 -22 -30
-2 6 -18 12 -34 12 -35 0 -36 9 -4 60 32 50 55 53 55 6z m100 0 c0 -19 2 -40
5 -48 7 -18 -15 -48 -22 -30 -2 6 -18 12 -34 12 -36 0 -36 10 -3 60 33 50 54
52 54 6z m1285 -11 l0 -40 -60 0 c-58 0 -60 1 -63 28 -6 51 2 58 65 55 l58 -3
0 -40z m-5210 1 c12 -17 13 -30 6 -49 -9 -22 -16 -25 -55 -25 -49 0 -63 15
-46 49 7 12 21 19 40 19 26 0 30 -4 30 -27 0 -20 3 -24 11 -16 16 16 2 50 -24
57 -52 14 -103 -69 -57 -94 12 -6 28 -9 36 -6 8 3 14 1 14 -4 0 -16 -57 -11
-74 6 -20 19 -20 37 -1 74 17 32 27 38 72 39 24 1 37 -5 48 -23z m2775 9 c0
-8 7 -15 15 -15 8 0 15 -4 15 -10 0 -5 -7 -10 -15 -10 -8 0 -15 -7 -15 -15 0
-8 -4 -15 -10 -15 -5 0 -10 7 -10 15 0 8 -7 15 -15 15 -8 0 -15 5 -15 10 0 6
7 10 15 10 8 0 15 7 15 15 0 8 5 15 10 15 6 0 10 -7 10 -15z m-6224 -20 c3
-14 10 -25 14 -25 4 0 11 11 14 25 4 14 11 25 17 25 12 0 6 -22 -22 -87 -19
-44 -45 -62 -30 -21 6 16 2 37 -10 65 -15 36 -16 43 -4 43 8 0 17 -11 21 -25z
m142 13 c14 -14 16 -78 3 -78 -6 0 -11 15 -13 32 -2 22 -9 34 -20 36 -15 3
-18 -4 -18 -32 0 -20 -4 -36 -10 -36 -5 0 -10 20 -10 45 0 43 1 45 28 45 15 0
33 -5 40 -12z m103 -4 c12 -15 10 -16 -17 -10 -23 5 -33 3 -37 -7 -9 -25 8
-39 39 -31 26 7 28 6 15 -9 -20 -25 -59 -21 -72 7 -23 50 38 91 72 50z m99 -4
c22 -42 -13 -80 -60 -65 -19 6 -25 22 -20 55 5 34 63 41 80 10z m150 -25 c0
-40 -1 -42 -32 -43 -39 -1 -58 13 -58 42 0 31 18 45 57 44 32 -1 33 -3 33 -43z
m110 -1 c0 -73 -23 -97 -74 -78 -28 11 -17 24 14 18 17 -4 30 -2 30 4 0 5 -13
12 -29 15 -31 7 -43 31 -30 65 7 18 16 22 49 22 l40 0 0 -46z m2440 1 c0 -25
-4 -45 -10 -45 -5 0 -10 20 -10 45 0 25 5 45 10 45 6 0 10 -20 10 -45z m98 -2
c2 -26 -1 -43 -7 -43 -6 0 -11 16 -11 35 0 28 -4 35 -20 35 -16 0 -20 -7 -20
-35 0 -19 -4 -35 -10 -35 -5 0 -10 21 -10 46 l0 45 38 -3 c36 -3 37 -4 40 -45z
m152 27 c22 -42 -13 -80 -60 -65 -19 6 -25 22 -20 55 5 34 63 41 80 10z m316
-12 l7 -33 14 33 c7 17 18 32 23 32 13 0 14 2 -14 -65 -25 -61 -52 -89 -40
-41 3 15 0 42 -10 66 -13 34 -14 40 -2 40 8 0 18 -15 22 -32z m144 13 c15 -30
13 -71 -5 -71 -10 0 -15 11 -15 35 0 23 -5 35 -14 35 -15 0 -26 -21 -26 -51 0
-10 -4 -19 -10 -19 -5 0 -10 20 -10 45 0 45 0 45 35 45 24 0 37 -6 45 -19z
m98 2 c2 -9 -5 -11 -28 -6 -29 5 -31 4 -28 -18 2 -19 8 -24 31 -22 34 2 32
-20 -2 -25 -43 -7 -69 46 -39 76 16 16 60 12 66 -5z m90 5 c7 -7 12 -21 12
-33 0 -47 -62 -63 -81 -21 -22 47 33 90 69 54z m143 -4 c12 -15 10 -16 -17
-10 -23 5 -33 3 -37 -7 -9 -25 8 -39 39 -31 26 7 28 6 15 -9 -20 -25 -59 -21
-72 7 -23 50 38 91 72 50z m-91 -64 c0 -5 -4 -10 -9 -10 -6 0 -13 5 -16 10 -3
6 1 10 9 10 9 0 16 -4 16 -10z m-3900 -170 c0 -33 -4 -60 -10 -60 -6 0 -10 27
-10 60 0 33 4 60 10 60 6 0 10 -27 10 -60z m40 0 c0 -33 -4 -60 -10 -60 -6 0
-10 27 -10 60 0 33 4 60 10 60 6 0 10 -27 10 -60z m40 50 c0 -5 -4 -10 -10
-10 -5 0 -10 5 -10 10 0 6 5 10 10 10 6 0 10 -4 10 -10z m1015 -50 c0 -54 0
-55 -29 -55 -16 0 -31 6 -34 13 -3 9 3 11 22 6 20 -5 26 -2 26 11 0 9 -4 14
-9 11 -5 -4 -16 -3 -24 0 -41 16 -23 77 21 72 26 -3 27 -6 27 -58z m106 33
c15 -41 0 -87 -31 -91 -42 -6 -65 51 -40 99 16 30 58 25 71 -8z m-1354 5 c8
-11 10 -46 4 -88 0 -5 -17 -10 -36 -10 l-35 0 0 55 c0 54 1 55 29 55 16 0 33
-6 38 -12z m679 -2 c9 -9 10 -17 4 -21 -14 -9 -13 -48 3 -64 10 -10 7 -12 -13
-9 -21 2 -26 10 -30 44 -9 63 4 81 36 50z m-578 -18 c28 -28 7 -78 -33 -78
-27 0 -45 18 -45 45 0 27 18 45 45 45 12 0 26 -5 33 -12z m132 -33 c0 -25 -4
-45 -10 -45 -5 0 -10 20 -10 45 0 25 5 45 10 45 6 0 10 -20 10 -45z m110 -1
c0 -73 -23 -97 -74 -78 -28 11 -17 24 14 18 17 -4 30 -2 30 4 0 5 -13 12 -29
15 -31 7 -43 31 -30 65 7 18 16 22 49 22 l40 0 0 -46z m89 32 c24 -28 2 -76
-35 -76 -32 0 -51 38 -35 69 13 24 53 28 70 7z m99 2 c14 -14 16 -78 3 -78 -6
0 -11 15 -13 32 -2 22 -9 34 -20 36 -15 3 -18 -4 -18 -32 0 -20 -4 -36 -10
-36 -5 0 -10 20 -10 45 0 43 1 45 28 45 15 0 33 -5 40 -12z m90 -7 c3 -10 -2
-11 -18 -6 -15 5 -20 4 -16 -4 4 -6 13 -11 21 -11 18 0 26 -25 12 -39 -16 -16
-42 -14 -58 6 -13 15 -11 16 16 10 l30 -7 -28 21 c-22 17 -25 24 -16 36 15 17
51 14 57 -6z m132 10 c0 -5 -7 -11 -15 -15 -9 -3 -15 -18 -15 -36 0 -16 -4
-30 -10 -30 -5 0 -10 20 -10 45 0 41 2 45 25 45 14 0 25 -4 25 -9z m100 -37
l0 -45 -41 3 c-46 3 -63 26 -48 66 7 18 16 22 49 22 l40 0 0 -46z m78 27 c3
-10 -2 -11 -18 -6 -15 5 -20 4 -16 -4 4 -6 13 -11 21 -11 18 0 26 -25 12 -39
-16 -16 -42 -14 -58 6 -13 15 -11 16 16 10 l30 -7 -28 21 c-22 17 -25 24 -16
36 15 17 51 14 57 -6z m86 4 c4 -12 0 -14 -19 -9 -33 8 -32 -4 1 -16 36 -14
29 -45 -10 -45 -16 0 -31 6 -34 13 -3 9 4 11 25 7 l28 -6 -27 16 c-27 15 -35
34 -21 48 12 13 51 7 57 -8z m96 0 c18 -21 -1 -69 -29 -73 -42 -7 -69 46 -39
76 17 17 53 15 68 -3z m-1115 -235 c0 -50 -2 -55 -23 -58 -26 -4 -55 15 -46
30 4 6 10 6 17 -1 16 -16 37 -13 37 4 0 8 -7 15 -15 15 -8 0 -15 4 -15 9 0 5
7 11 15 15 30 11 16 28 -17 20 -30 -6 -31 -5 -19 10 8 10 25 16 40 14 24 -3
26 -6 26 -58z m94 46 c7 -8 11 -31 9 -52 -6 -72 -70 -72 -76 0 -4 41 11 66 38
66 10 0 23 -6 29 -14z m101 0 c10 -13 7 -15 -16 -13 -15 1 -29 -3 -31 -10 -3
-7 3 -10 15 -7 24 7 44 -18 40 -48 -3 -26 -41 -37 -64 -18 -16 14 -19 63 -4
91 13 22 43 25 60 5z m110 4 c0 -5 -11 -10 -25 -10 -14 0 -25 -4 -25 -10 0 -5
9 -10 20 -10 10 0 24 -9 30 -20 24 -45 -38 -83 -71 -44 -12 15 -10 16 19 10
28 -7 32 -5 32 14 0 19 -4 21 -25 16 -23 -6 -25 -4 -25 29 0 33 2 35 35 35 19
0 35 -4 35 -10z m280 -50 c0 -33 -4 -60 -10 -60 -6 0 -10 27 -10 60 0 33 4 60
10 60 6 0 10 -27 10 -60z m50 0 c0 -33 -4 -60 -10 -60 -6 0 -10 27 -10 60 0
33 4 60 10 60 6 0 10 -27 10 -60z m40 50 c0 -5 -7 -10 -16 -10 -8 0 -12 5 -9
10 3 6 10 10 16 10 5 0 9 -4 9 -10z m-234 -30 c0 -14 4 -31 8 -38 12 -20 -13
-42 -50 -42 l-34 0 0 56 0 55 38 -3 c32 -3 37 -6 38 -28z m5827 13 c-13 -2
-23 -11 -23 -19 0 -8 10 -15 23 -15 l22 -2 -22 -4 c-15 -3 -23 -12 -23 -24 0
-10 -4 -19 -10 -19 -5 0 -10 20 -10 45 0 44 0 45 33 44 23 -1 26 -3 10 -6z
m-5725 -15 c28 -28 7 -78 -33 -78 -27 0 -45 18 -45 45 0 27 18 45 45 45 12 0
26 -5 33 -12z m132 -33 c0 -25 -4 -45 -10 -45 -5 0 -10 20 -10 45 0 25 5 45
10 45 6 0 10 -20 10 -45z m110 6 c0 -22 -4 -52 -10 -66 -8 -22 -15 -26 -42
-23 -17 2 -33 9 -36 15 -2 9 5 11 27 7 20 -4 31 -2 31 5 0 6 -11 11 -25 11
-33 0 -52 38 -36 69 9 16 21 21 51 21 40 0 40 0 40 -39z m90 24 c18 -21 -1
-69 -29 -73 -42 -7 -69 46 -39 76 17 17 53 15 68 -3z m100 -4 c15 -30 13 -71
-5 -71 -10 0 -15 11 -15 35 0 23 -5 35 -14 35 -15 0 -26 -21 -26 -51 0 -10 -4
-19 -10 -19 -5 0 -10 20 -10 45 0 45 0 45 35 45 24 0 37 -6 45 -19z m5370 -26
c0 -31 -3 -35 -25 -35 -31 0 -34 29 -5 37 11 3 20 10 20 15 0 5 -10 6 -21 3
-15 -5 -19 -4 -15 4 4 6 16 11 27 11 15 0 19 -7 19 -35z m38 23 c9 -9 12 -9
12 0 0 7 5 12 10 12 7 0 8 -6 1 -17 -6 -11 -6 -24 0 -35 6 -12 6 -18 -1 -18
-5 0 -10 5 -10 12 0 9 -3 9 -12 0 -18 -18 -33 -15 -17 4 10 12 10 20 1 35 -13
21 -3 26 16 7z m-6238 -183 c0 -8 8 -15 18 -15 27 0 42 -20 42 -57 0 -43 -18
-43 -22 -1 -2 22 -9 34 -20 36 -15 3 -18 -4 -18 -32 0 -20 -4 -36 -10 -36 -6
0 -10 27 -10 60 0 33 4 60 10 60 6 0 10 -7 10 -15z m330 5 c0 -5 -7 -10 -16
-10 -8 0 -12 5 -9 10 3 6 10 10 16 10 5 0 9 -4 9 -10z m-472 -18 c3 -9 -3 -11
-22 -6 -34 8 -35 -13 0 -26 19 -7 25 -16 22 -33 -4 -28 -48 -36 -69 -11 -12
15 -11 16 19 10 38 -9 45 10 8 24 -32 12 -40 28 -25 46 14 18 61 15 67 -4z
m93 -18 c12 -15 10 -16 -19 -10 -30 7 -32 6 -32 -19 0 -25 2 -26 32 -19 29 6
31 5 19 -10 -27 -32 -73 -14 -73 29 0 43 46 61 73 29z m147 -16 l9 -33 7 33
c8 34 36 45 36 13 0 -28 18 -36 22 -9 2 12 8 23 15 25 8 3 8 -7 -2 -39 -14
-48 -36 -56 -46 -18 l-6 25 -8 -27 c-10 -40 -30 -35 -43 11 -14 47 -15 51 -2
51 5 0 13 -15 18 -32z m181 18 c24 -28 2 -76 -35 -76 -32 0 -51 38 -35 69 13
24 53 28 70 7z m51 -31 c0 -25 -4 -45 -10 -45 -5 0 -10 20 -10 45 0 25 5 45
10 45 6 0 10 -20 10 -45z m80 39 c0 -3 -9 -18 -20 -34 l-20 -28 23 -7 c20 -7
19 -8 -11 -12 -45 -6 -48 0 -22 36 17 25 18 31 6 31 -8 0 -18 5 -21 10 -4 6 8
10 29 10 20 0 36 -3 36 -6z m5860 -123 c0 -22 4 -41 9 -43 5 -1 3 -12 -6 -23
-11 -14 -17 -16 -20 -7 -3 6 -15 12 -28 12 -35 0 -37 11 -7 58 34 53 52 54 52
3z m60 -21 c0 -33 -4 -60 -10 -60 -5 0 -10 23 -10 50 0 28 -4 50 -10 50 -5 0
-10 5 -10 10 0 6 9 10 20 10 18 0 20 -7 20 -60z m135 0 c0 -50 -2 -55 -23 -58
-26 -4 -55 15 -46 30 4 6 10 6 17 -1 16 -16 37 -13 37 4 0 8 -7 15 -15 15 -8
0 -15 4 -15 9 0 5 7 11 15 15 30 11 16 28 -17 20 -30 -6 -31 -5 -19 10 8 10
25 16 40 14 24 -3 26 -6 26 -58z m55 0 c0 -33 -4 -60 -10 -60 -5 0 -10 23 -10
50 0 28 -4 50 -10 50 -5 0 -10 5 -10 10 0 6 9 10 20 10 18 0 20 -7 20 -60z
m144 28 c15 -44 -3 -83 -38 -83 -16 0 -31 5 -33 12 -3 8 6 11 23 10 15 -1 29
4 32 12 3 8 0 11 -7 7 -22 -14 -51 4 -51 33 0 35 8 43 39 39 18 -2 29 -12 35
-30z m90 10 c8 -13 5 -24 -12 -48 -22 -29 -22 -30 -2 -30 11 0 20 -4 20 -10 0
-5 -18 -10 -40 -10 -22 0 -40 3 -40 8 0 4 14 20 30 35 17 16 30 33 30 37 0 16
-21 22 -36 9 -19 -16 -30 -4 -14 16 16 20 49 16 64 -7z m56 -38 c0 -33 -4 -60
-10 -60 -5 0 -10 23 -10 50 0 28 -4 50 -10 50 -5 0 -10 5 -10 10 0 6 9 10 20
10 18 0 20 -7 20 -60z m130 46 c10 -13 7 -15 -16 -13 -15 1 -29 -3 -31 -10 -3
-7 3 -10 15 -7 24 7 44 -18 40 -48 -3 -26 -41 -37 -64 -18 -16 14 -19 63 -4
91 13 22 43 25 60 5z m111 -13 c15 -41 0 -87 -31 -91 -42 -6 -65 51 -40 99 16
30 58 25 71 -8z m135 -3 c1 -14 5 -33 9 -43 9 -23 -11 -47 -40 -47 -29 0 -50
24 -40 47 5 10 7 24 6 32 -5 28 9 42 36 39 22 -2 28 -8 29 -28z m100 0 c1 -14
5 -33 9 -43 9 -23 -11 -47 -40 -47 -29 0 -50 24 -40 47 5 10 7 24 6 32 -5 28
9 42 36 39 22 -2 28 -8 29 -28z m-1146 -5 c0 -8 7 -15 15 -15 8 0 15 -4 15
-10 0 -5 -7 -10 -15 -10 -8 0 -15 -7 -15 -15 0 -8 -4 -15 -10 -15 -5 0 -10 7
-10 15 0 8 -7 15 -15 15 -8 0 -15 5 -15 10 0 6 7 10 15 10 8 0 15 7 15 15 0 8
5 15 10 15 6 0 10 -7 10 -15z"/>
<path d="M5640 2515 c0 -17 5 -25 13 -22 6 2 12 12 12 22 0 10 -6 20 -12 23
-8 2 -13 -6 -13 -23z"/>
<path d="M5570 2535 c0 -8 4 -15 10 -15 5 0 7 7 4 15 -4 8 -8 15 -10 15 -2 0
-4 -7 -4 -15z"/>
<path d="M5755 2530 c-3 -5 1 -10 10 -10 9 0 13 5 10 10 -3 6 -8 10 -10 10 -2
0 -7 -4 -10 -10z"/>
<path d="M5950 2530 c0 -5 7 -10 16 -10 8 0 12 5 9 10 -3 6 -10 10 -16 10 -5
0 -9 -4 -9 -10z"/>
<path d="M8930 2499 c0 -5 5 -7 10 -4 6 3 10 8 10 11 0 2 -4 4 -10 4 -5 0 -10
-5 -10 -11z"/>
<path d="M11925 2530 c-3 -5 1 -10 9 -10 9 0 16 5 16 10 0 6 -4 10 -9 10 -6 0
-13 -4 -16 -10z"/>
<path d="M12025 2530 c-3 -5 1 -10 10 -10 9 0 13 5 10 10 -3 6 -8 10 -10 10
-2 0 -7 -4 -10 -10z"/>
<path d="M12134 2525 c-3 -8 -3 -19 1 -25 11 -18 25 -11 25 15 0 27 -17 34
-26 10z"/>
<path d="M14023 2524 c-8 -22 15 -44 26 -25 10 16 4 41 -10 41 -5 0 -12 -7
-16 -16z"/>
<path d="M14157 2527 c-3 -8 -1 -20 4 -28 11 -19 34 3 26 25 -8 20 -23 21 -30
3z"/>
<path d="M14118 2223 c-20 -5 -23 -20 -9 -42 7 -11 13 -9 30 8 34 34 27 47
-21 34z"/>
<path d="M5564 2185 c-4 -9 -2 -21 4 -27 15 -15 44 -1 40 19 -4 23 -36 29 -44
8z"/>
<path d="M9174 2185 c-4 -9 -2 -21 4 -27 15 -15 44 -1 40 19 -4 23 -36 29 -44
8z"/>
<path d="M11990 2190 c-9 -16 -8 -20 5 -20 8 0 15 9 15 20 0 11 -2 20 -5 20
-2 0 -9 -9 -15 -20z"/>
<path d="M12370 2216 c0 -21 21 -31 30 -15 5 7 6 17 4 21 -9 14 -34 9 -34 -6z"/>
<path d="M12653 2218 c2 -7 10 -13 17 -13 7 0 15 6 18 13 2 7 -5 12 -18 12
-13 0 -20 -5 -17 -12z"/>
<path d="M12650 2165 c0 -8 9 -15 20 -15 11 0 20 7 20 15 0 8 -9 15 -20 15
-11 0 -20 -7 -20 -15z"/>
<path d="M12760 2214 c0 -9 5 -14 12 -12 18 6 21 28 4 28 -9 0 -16 -7 -16 -16z"/>
<path d="M12752 2168 c7 -19 38 -22 38 -4 0 10 -9 16 -21 16 -12 0 -19 -5 -17
-12z"/>
<path d="M12910 2201 c-13 -26 -13 -31 5 -31 9 0 15 9 15 25 0 30 -6 32 -20 6z"/>
<path d="M13012 2200 c-16 -26 -15 -30 3 -30 9 0 15 9 15 25 0 30 -2 31 -18 5z"/>
<path d="M14260 2210 c0 -5 7 -10 16 -10 8 0 12 5 9 10 -3 6 -10 10 -16 10 -5
0 -9 -4 -9 -10z"/>
<path d="M9047 2166 c-3 -8 -3 -17 0 -20 7 -7 33 13 33 25 0 15 -27 10 -33 -5z"/>
<path d="M5960 2175 c0 -18 5 -25 20 -25 15 0 20 7 20 25 0 18 -5 25 -20 25
-15 0 -20 -7 -20 -25z"/>
<path d="M6104 2185 c-4 -9 -2 -21 4 -27 15 -15 44 -1 40 19 -4 23 -36 29 -44
8z"/>
<path d="M6210 2175 c0 -18 5 -25 19 -25 20 0 31 17 24 38 -3 6 -13 12 -24 12
-14 0 -19 -7 -19 -25z"/>
<path d="M8910 2175 c0 -18 5 -25 20 -25 15 0 20 7 20 25 0 18 -5 25 -20 25
-15 0 -20 -7 -20 -25z"/>
<path d="M9567 2187 c-3 -8 -2 -20 3 -27 11 -18 42 -4 38 17 -4 22 -34 29 -41
10z"/>
<path d="M6817 2004 c-9 -10 4 -34 19 -34 8 0 14 9 14 20 0 19 -19 27 -33 14z"/>
<path d="M6914 1996 c-10 -25 0 -61 19 -64 14 -3 17 4 17 37 0 30 -4 41 -15
41 -9 0 -18 -6 -21 -14z"/>
<path d="M5570 1990 c0 -5 7 -10 15 -10 8 0 15 5 15 10 0 6 -7 10 -15 10 -8 0
-15 -4 -15 -10z"/>
<path d="M5570 1946 c0 -10 9 -16 21 -16 24 0 21 23 -4 28 -10 2 -17 -3 -17
-12z"/>
<path d="M5664 1965 c-4 -9 -2 -21 4 -27 15 -15 44 -1 40 19 -4 23 -36 29 -44
8z"/>
<path d="M5890 1955 c0 -18 5 -25 19 -25 20 0 31 17 24 38 -3 6 -13 12 -24 12
-14 0 -19 -7 -19 -25z"/>
<path d="M6000 1970 c0 -5 9 -10 21 -10 11 0 17 5 14 10 -3 6 -13 10 -21 10
-8 0 -14 -4 -14 -10z"/>
<path d="M6008 1933 c7 -3 16 -2 19 1 4 3 -2 6 -13 5 -11 0 -14 -3 -6 -6z"/>
<path d="M6400 1955 c0 -18 5 -25 19 -25 20 0 31 17 24 38 -3 6 -13 12 -24 12
-14 0 -19 -7 -19 -25z"/>
<path d="M6675 1970 c-3 -5 3 -10 14 -10 12 0 21 5 21 10 0 6 -6 10 -14 10 -8
0 -18 -4 -21 -10z"/>
<path d="M6688 1933 c7 -3 16 -2 19 1 4 3 -2 6 -13 5 -11 0 -14 -3 -6 -6z"/>
<path d="M5664 1776 c-10 -25 0 -61 19 -64 14 -3 17 4 17 37 0 30 -4 41 -15
41 -9 0 -18 -6 -21 -14z"/>
<path d="M5765 1741 c-8 -15 3 -31 21 -31 9 0 14 7 12 17 -4 20 -24 28 -33 14z"/>
<path d="M6000 1770 c0 -5 9 -10 20 -10 11 0 20 5 20 10 0 6 -9 10 -20 10 -11
0 -20 -4 -20 -10z"/>
<path d="M6000 1725 c0 -8 9 -15 20 -15 11 0 20 7 20 15 0 8 -9 15 -20 15 -11
0 -20 -7 -20 -15z"/>
<path d="M6104 1745 c-4 -9 -2 -21 4 -27 15 -15 44 -1 40 19 -4 23 -36 29 -44
8z"/>
<path d="M6328 1748 c-8 -21 2 -38 23 -38 14 0 19 7 19 25 0 18 -5 25 -19 25
-10 0 -21 -6 -23 -12z"/>
<path d="M6435 1750 c-3 -5 3 -10 14 -10 12 0 21 5 21 10 0 6 -6 10 -14 10 -8
0 -18 -4 -21 -10z"/>
<path d="M6448 1713 c7 -3 16 -2 19 1 4 3 -2 6 -13 5 -11 0 -14 -3 -6 -6z"/>
<path d="M11930 1719 c0 -5 5 -7 10 -4 6 3 10 8 10 11 0 2 -4 4 -10 4 -5 0
-10 -5 -10 -11z"/>
<path d="M5990 1530 c0 -5 9 -10 21 -10 11 0 17 5 14 10 -3 6 -13 10 -21 10
-8 0 -14 -4 -14 -10z"/>
<path d="M5998 1493 c7 -3 16 -2 19 1 4 3 -2 6 -13 5 -11 0 -14 -3 -6 -6z"/>
<path d="M11990 1410 c-9 -16 -8 -20 5 -20 8 0 15 9 15 20 0 11 -2 20 -5 20
-2 0 -9 -9 -15 -20z"/>
<path d="M12370 1436 c0 -21 21 -31 30 -15 5 7 6 17 4 21 -9 14 -34 9 -34 -6z"/>
<path d="M12655 1401 c-8 -15 3 -31 21 -31 9 0 14 7 12 17 -4 20 -24 28 -33
14z"/>
<path d="M12754 1436 c-10 -25 0 -61 19 -64 14 -3 17 4 17 37 0 30 -4 41 -15
41 -9 0 -18 -6 -21 -14z"/>
<path d="M12902 1439 c2 -6 8 -10 13 -10 5 0 11 4 13 10 2 6 -4 11 -13 11 -9
0 -15 -5 -13 -11z"/>
<path d="M12895 1390 c-8 -12 20 -24 35 -15 6 3 8 11 5 16 -8 12 -32 12 -40
-1z"/>
<path d="M13002 1439 c2 -6 8 -10 13 -10 5 0 11 4 13 10 2 6 -4 11 -13 11 -9
0 -15 -5 -13 -11z"/>
<path d="M12995 1390 c-8 -12 20 -24 35 -15 6 3 8 11 5 16 -8 12 -32 12 -40
-1z"/>
</g>
</svg>
