<svg width="735" height="501" viewBox="0 0 735 501" fill="none" xmlns="http://www.w3.org/2000/svg">
<g filter="url(#filter0_f_373_1404)">
<path d="M395.061 356.027C399.693 353.714 402.01 352.558 403.896 351.544C458.063 322.453 458.063 277.42 403.896 248.328C402.01 247.314 399.693 246.158 395.061 243.845C390.428 241.532 388.112 240.376 386.082 239.434C327.809 212.392 237.605 212.392 179.332 239.434C177.303 240.376 174.986 241.532 170.354 243.845C165.721 246.158 163.405 247.314 161.518 248.328C107.351 277.42 107.351 322.453 161.518 351.544C163.405 352.558 165.721 353.714 170.354 356.027C174.986 358.34 177.303 359.496 179.332 360.438C237.605 387.48 327.809 387.48 386.082 360.438C388.112 359.496 390.428 358.34 395.061 356.027Z" fill="#F0ECF8"/>
</g>
<path d="M735 144.292L454.898 4.45544C450.945 2.48194 444.536 2.48194 440.583 4.45544L160.481 144.292L447.741 287.703L735 144.292Z" fill="#F0ECF8"/>
<path d="M734.634 144.16L447.741 285.198V366.936L730.163 228.096C732.9 226.751 734.634 223.966 734.634 220.917V144.16Z" fill="#D1C4EA"/>
<path d="M160.848 144.16L447.741 285.198V366.936L165.319 228.096C162.582 226.751 160.848 223.966 160.848 220.917V144.16Z" fill="#765792"/>
<defs>
<filter id="filter0_f_373_1404" x="0.892334" y="99.1523" width="563.629" height="401.567" filterUnits="userSpaceOnUse" color-interpolation-filters="sRGB">
<feFlood flood-opacity="0" result="BackgroundImageFix"/>
<feBlend mode="normal" in="SourceGraphic" in2="BackgroundImageFix" result="shape"/>
<feGaussianBlur stdDeviation="60" result="effect1_foregroundBlur_373_1404"/>
</filter>
</defs>
</svg>
