<svg width="973" height="727" viewBox="0 0 973 727" fill="none" xmlns="http://www.w3.org/2000/svg">
<g filter="url(#filter0_f_159_786)">
<path d="M459.052 554.483C414.691 528.873 392.51 516.068 381.473 502.006C364.006 479.75 364.006 454.227 381.473 431.972C392.51 417.909 414.691 405.104 459.052 379.494C503.414 353.884 525.595 341.079 549.953 334.708C588.505 324.624 632.715 324.624 671.267 334.708C695.626 341.079 717.806 353.884 762.168 379.494C806.529 405.104 828.71 417.909 839.747 431.972C857.214 454.227 857.214 479.75 839.747 502.006C828.71 516.068 806.529 528.873 762.168 554.483C717.806 580.093 695.626 592.898 671.267 599.269C632.715 609.353 588.505 609.353 549.953 599.269C525.595 592.898 503.414 580.093 459.052 554.483Z" fill="#D4DEDA"/>
</g>
<path d="M0 224.206L380.566 4.50521C384.393 2.29621 390.596 2.29622 394.423 4.50521L774.989 224.206L387.495 447.907L0 224.206Z" fill="#D4DEDA"/>
<path d="M0.494629 224L387.495 444V571.5L4.54102 353.8C2.03971 352.378 0.494629 349.723 0.494629 346.845V224Z" fill="#9BB2A9"/>
<path d="M774.494 224L387.494 444V571.5L770.448 353.8C772.949 352.378 774.494 349.723 774.494 346.845V224Z" fill="#40603B"/>
<defs>
<filter id="filter0_f_159_786" x="248.373" y="207.145" width="724.475" height="519.687" filterUnits="userSpaceOnUse" color-interpolation-filters="sRGB">
<feFlood flood-opacity="0" result="BackgroundImageFix"/>
<feBlend mode="normal" in="SourceGraphic" in2="BackgroundImageFix" result="shape"/>
<feGaussianBlur stdDeviation="60" result="effect1_foregroundBlur_159_786"/>
</filter>
</defs>
</svg>
