<svg width="973" height="727" viewBox="0 0 973 727" fill="none" xmlns="http://www.w3.org/2000/svg">
<g filter="url(#filter0_f_373_1415)">
<path d="M514.442 554.242C558.804 528.632 580.985 515.827 592.021 501.764C609.489 479.509 609.489 453.986 592.021 431.73C580.985 417.668 558.804 404.863 514.442 379.253C470.081 353.643 447.9 340.838 423.541 334.467C384.99 324.383 340.779 324.383 302.228 334.467C277.869 340.838 255.688 353.643 211.327 379.253C166.965 404.863 144.785 417.668 133.748 431.73C116.28 453.986 116.28 479.509 133.748 501.764C144.785 515.827 166.965 528.632 211.327 554.242C255.688 579.852 277.869 592.656 302.228 599.028C340.779 609.112 384.99 609.112 423.541 599.028C447.9 592.656 470.081 579.852 514.442 554.242Z" fill="#ECE8E6"/>
</g>
<path d="M973 223.965L592.434 4.26388C588.607 2.05487 582.404 2.05489 578.577 4.26388L198.011 223.965L585.505 447.665L973 223.965Z" fill="#ECE8E6"/>
<path d="M972.506 223.759L585.506 443.759V571.259L968.459 353.559C970.961 352.137 972.506 349.481 972.506 346.604V223.759Z" fill="#D3CAC5"/>
<path d="M198.506 223.759L585.506 443.759V571.259L202.552 353.559C200.051 352.137 198.506 349.481 198.506 346.604V223.759Z" fill="#BDAFA8"/>
<defs>
<filter id="filter0_f_373_1415" x="0.646973" y="206.904" width="724.475" height="519.687" filterUnits="userSpaceOnUse" color-interpolation-filters="sRGB">
<feFlood flood-opacity="0" result="BackgroundImageFix"/>
<feBlend mode="normal" in="SourceGraphic" in2="BackgroundImageFix" result="shape"/>
<feGaussianBlur stdDeviation="60" result="effect1_foregroundBlur_373_1415"/>
</filter>
</defs>
</svg>
